<svg width="303" height="42" viewBox="0 0 303 42" fill="none" xmlns="http://www.w3.org/2000/svg">
<path d="M0 21.0571C0 17.7291 0.72 14.7691 2.16 12.1771C3.6 9.55306 5.6 7.52106 8.16 6.08106C10.752 4.60906 13.68 3.87306 16.944 3.87306C20.944 3.87306 24.368 4.92906 27.216 7.04106C30.064 9.15306 31.968 12.0331 32.928 15.6811H23.904C23.232 14.2731 22.272 13.2011 21.024 12.4651C19.808 11.7291 18.416 11.3611 16.848 11.3611C14.32 11.3611 12.272 12.2411 10.704 14.0011C9.136 15.7611 8.352 18.1131 8.352 21.0571C8.352 24.0011 9.136 26.3531 10.704 28.1131C12.272 29.8731 14.32 30.7531 16.848 30.7531C18.416 30.7531 19.808 30.3851 21.024 29.6491C22.272 28.9131 23.232 27.8411 23.904 26.4331H32.928C31.968 30.0811 30.064 32.9611 27.216 35.0731C24.368 37.1531 20.944 38.1931 16.944 38.1931C13.68 38.1931 10.752 37.4731 8.16 36.0331C5.6 34.5611 3.6 32.5291 2.16 29.9371C0.72 27.3451 0 24.3851 0 21.0571Z" fill="#333333"/>
<path d="M53.8905 38.2891C50.7225 38.2891 47.8105 37.5531 45.1545 36.0811C42.5305 34.6091 40.4345 32.5611 38.8665 29.9371C37.3305 27.2811 36.5625 24.3051 36.5625 21.0091C36.5625 17.7131 37.3305 14.7531 38.8665 12.1291C40.4345 9.50506 42.5305 7.45706 45.1545 5.98506C47.8105 4.51306 50.7225 3.77706 53.8905 3.77706C57.0585 3.77706 59.9545 4.51306 62.5785 5.98506C65.2345 7.45706 67.3145 9.50506 68.8185 12.1291C70.3545 14.7531 71.1225 17.7131 71.1225 21.0091C71.1225 24.3051 70.3545 27.2811 68.8185 29.9371C67.2825 32.5611 65.2025 34.6091 62.5785 36.0811C59.9545 37.5531 57.0585 38.2891 53.8905 38.2891ZM53.8905 30.8011C56.5785 30.8011 58.7225 29.9051 60.3225 28.1131C61.9545 26.3211 62.7705 23.9531 62.7705 21.0091C62.7705 18.0331 61.9545 15.6651 60.3225 13.9051C58.7225 12.1131 56.5785 11.2171 53.8905 11.2171C51.1705 11.2171 48.9945 12.0971 47.3625 13.8571C45.7625 15.6171 44.9625 18.0011 44.9625 21.0091C44.9625 23.9851 45.7625 26.3691 47.3625 28.1611C48.9945 29.9211 51.1705 30.8011 53.8905 30.8011Z" fill="#333333"/>
<path d="M87.8809 38.2891C85.4169 38.2891 83.2089 37.8891 81.2569 37.0891C79.3049 36.2891 77.7369 35.1051 76.5529 33.5371C75.4009 31.9691 74.7929 30.0811 74.7289 27.8731H83.4649C83.5929 29.1211 84.0249 30.0811 84.7609 30.7531C85.4969 31.3931 86.4569 31.7131 87.6409 31.7131C88.8569 31.7131 89.8169 31.4411 90.5209 30.8971C91.2249 30.3211 91.5769 29.5371 91.5769 28.5451C91.5769 27.7131 91.2889 27.0251 90.7129 26.4811C90.1689 25.9371 89.4809 25.4891 88.6489 25.1371C87.8489 24.7851 86.6969 24.3851 85.1929 23.9371C83.0169 23.2651 81.2409 22.5931 79.8649 21.9211C78.4889 21.2491 77.3049 20.2571 76.3129 18.9451C75.3209 17.6331 74.8249 15.9211 74.8249 13.8091C74.8249 10.6731 75.9609 8.22506 78.2329 6.46506C80.5049 4.67306 83.4649 3.77706 87.1129 3.77706C90.8249 3.77706 93.8169 4.67306 96.0889 6.46506C98.3609 8.22506 99.5769 10.6891 99.7369 13.8571H90.8569C90.7929 12.7691 90.3929 11.9211 89.6569 11.3131C88.9209 10.6731 87.9769 10.3531 86.8249 10.3531C85.8329 10.3531 85.0329 10.6251 84.4249 11.1691C83.8169 11.6811 83.5129 12.4331 83.5129 13.4251C83.5129 14.5131 84.0249 15.3611 85.0489 15.9691C86.0729 16.5771 87.6729 17.2331 89.8489 17.9371C92.0249 18.6731 93.7849 19.3771 95.1289 20.0491C96.5049 20.7211 97.6889 21.6971 98.6809 22.9771C99.6729 24.2571 100.169 25.9051 100.169 27.9211C100.169 29.8411 99.6729 31.5851 98.6809 33.1531C97.7209 34.7211 96.3129 35.9691 94.4569 36.8971C92.6009 37.8251 90.4089 38.2891 87.8809 38.2891Z" fill="#333333"/>
<path d="M129.46 4.25706V10.8331H120.532V37.9531H112.324V10.8331H103.396V4.25706H129.46Z" fill="#333333"/>
<path d="M141.643 4.25706V24.4171C141.643 26.4331 142.14 27.9851 143.132 29.0731C144.124 30.1611 145.579 30.7051 147.499 30.7051C149.419 30.7051 150.891 30.1611 151.915 29.0731C152.939 27.9851 153.452 26.4331 153.452 24.4171V4.25706H161.66V24.3691C161.66 27.3771 161.02 29.9211 159.74 32.0011C158.46 34.0811 156.731 35.6491 154.555 36.7051C152.411 37.7611 150.011 38.2891 147.355 38.2891C144.699 38.2891 142.316 37.7771 140.204 36.7531C138.124 35.6971 136.476 34.1291 135.26 32.0491C134.044 29.9371 133.436 27.3771 133.436 24.3691V4.25706H141.643Z" fill="#333333"/>
<path d="M184.607 37.9531L177.599 25.2331H175.631V37.9531H167.423V4.25706H181.199C183.855 4.25706 186.111 4.72106 187.967 5.64906C189.855 6.57706 191.263 7.85706 192.191 9.48906C193.119 11.0891 193.583 12.8811 193.583 14.8651C193.583 17.1051 192.943 19.1051 191.663 20.8651C190.415 22.6251 188.559 23.8731 186.095 24.6091L193.871 37.9531H184.607ZM175.631 19.4251H180.719C182.223 19.4251 183.343 19.0571 184.079 18.3211C184.847 17.5851 185.231 16.5451 185.231 15.2011C185.231 13.9211 184.847 12.9131 184.079 12.1771C183.343 11.4411 182.223 11.0731 180.719 11.0731H175.631V19.4251Z" fill="#333333"/>
<path d="M206.944 10.8331V17.6491H217.936V23.9851H206.944V31.3771H219.376V37.9531H198.736V4.25706H219.376V10.8331H206.944Z" fill="#333333"/>
<path d="M233.441 31.2331H247.936V37.9531H224.128V31.7131L238.529 10.9771H224.128V4.25706H247.936V10.4971L233.441 31.2331Z" fill="#333333"/>
<path d="M253.754 2.40672H268.216V41.9061H253.754V2.40672Z" fill="#CB0002"/>
<path d="M264.754 10.2261L274.981 0L302.911 27.9303L292.685 38.1564L264.754 10.2261Z" fill="#CB0002"/>
<path d="M257.784 33.4464H258.525V36.4764H260.874V34.0164H261.615V36.4764H264.754V37.3864H257.784V33.4464Z" fill="#F9E8E8"/>
<path d="M264.754 28.6774L261.904 30.3374V31.4374H264.754V32.3474H257.784V30.0974C257.784 29.5707 257.875 29.1274 258.055 28.7674C258.235 28.4007 258.478 28.1274 258.784 27.9474C259.091 27.7674 259.441 27.6774 259.835 27.6774C260.315 27.6774 260.738 27.8174 261.104 28.0974C261.471 28.3707 261.715 28.784 261.835 29.3374L264.754 27.5874V28.6774ZM261.174 31.4374V30.0974C261.174 29.604 261.054 29.234 260.814 28.9874C260.568 28.7407 260.241 28.6174 259.835 28.6174C259.421 28.6174 259.101 28.7407 258.874 28.9874C258.648 29.2274 258.534 29.5974 258.534 30.0974V31.4374H261.174Z" fill="#F9E8E8"/>
<path d="M264.824 23.1034C264.824 23.75 264.674 24.34 264.374 24.8734C264.068 25.4067 263.644 25.83 263.104 26.1434C262.558 26.45 261.944 26.6034 261.264 26.6034C260.584 26.6034 259.974 26.45 259.434 26.1434C258.888 25.83 258.464 25.4067 258.164 24.8734C257.858 24.34 257.704 23.75 257.704 23.1034C257.704 22.45 257.858 21.8567 258.164 21.3234C258.464 20.79 258.884 20.37 259.424 20.0634C259.964 19.7567 260.578 19.6034 261.264 19.6034C261.951 19.6034 262.564 19.7567 263.104 20.0634C263.644 20.37 264.068 20.79 264.374 21.3234C264.674 21.8567 264.824 22.45 264.824 23.1034ZM264.034 23.1034C264.034 22.6167 263.921 22.18 263.694 21.7934C263.468 21.4 263.144 21.0934 262.724 20.8734C262.304 20.6467 261.818 20.5334 261.264 20.5334C260.704 20.5334 260.218 20.6467 259.805 20.8734C259.385 21.0934 259.061 21.3967 258.835 21.7834C258.608 22.17 258.495 22.61 258.495 23.1034C258.495 23.5967 258.608 24.0367 258.835 24.4234C259.061 24.81 259.385 25.1167 259.805 25.3434C260.218 25.5634 260.704 25.6734 261.264 25.6734C261.818 25.6734 262.304 25.5634 262.724 25.3434C263.144 25.1167 263.468 24.81 263.694 24.4234C263.921 24.03 264.034 23.59 264.034 23.1034Z" fill="#F9E8E8"/>
<path d="M264.754 12.922V13.832L259.204 17.492H264.754V18.402H257.775V17.492L263.314 13.832H257.775V12.922H264.754Z" fill="#F9E8E8"/>
<path d="M257.784 7.08079H258.525V8.98079H264.754V9.89079H258.525V11.8008H257.784V7.08079Z" fill="#F9E8E8"/>
<path d="M278.306 11.045L276.659 12.6925L278.455 14.4886L277.924 15.0189L276.128 13.2228L274.431 14.9199L276.44 16.9281L275.909 17.4584L273.258 14.8068L278.193 9.87115L280.845 12.5228L280.314 13.0531L278.306 11.045Z" fill="#F9E8E8"/>
<path d="M280.758 22.307L280.114 21.6635L281.451 15.1511L277.526 19.0755L276.883 18.4321L281.818 13.4965L282.462 14.1399L281.133 20.6453L285.05 16.7279L285.693 17.3714L280.758 22.307Z" fill="#F9E8E8"/>
<path d="M288.318 20.0098C288.855 20.5472 289.218 21.1129 289.407 21.7069C289.605 22.3008 289.621 22.8877 289.456 23.4675C289.296 24.0521 288.963 24.5966 288.459 25.101C287.955 25.6054 287.41 25.9377 286.826 26.098C286.251 26.2583 285.666 26.2394 285.072 26.0414C284.487 25.8434 283.927 25.4757 283.389 24.9383L281.855 23.4039L286.783 18.4754L288.318 20.0098ZM283.919 24.408C284.556 25.0444 285.209 25.3626 285.878 25.3626C286.552 25.3579 287.193 25.0515 287.801 24.4434C288.414 23.8305 288.723 23.1823 288.728 22.4988C288.737 21.82 288.426 21.1647 287.794 20.5331L286.903 19.6421L283.029 23.517L283.919 24.408Z" fill="#F9E8E8"/>
</svg>
