<svg width="307" height="43" viewBox="0 0 307 43" fill="none" xmlns="http://www.w3.org/2000/svg">
<path d="M0 25.0101C0 21.6821 0.72 18.7221 2.16 16.1301C3.6 13.5061 5.6 11.4741 8.16 10.0341C10.752 8.56213 13.68 7.82613 16.944 7.82613C20.944 7.82613 24.368 8.88213 27.216 10.9941C30.064 13.1061 31.968 15.9861 32.928 19.6341H23.904C23.232 18.2261 22.272 17.1541 21.024 16.4181C19.808 15.6821 18.416 15.3141 16.848 15.3141C14.32 15.3141 12.272 16.1941 10.704 17.9541C9.136 19.7141 8.352 22.0661 8.352 25.0101C8.352 27.9541 9.136 30.3061 10.704 32.0661C12.272 33.8261 14.32 34.7061 16.848 34.7061C18.416 34.7061 19.808 34.3381 21.024 33.6021C22.272 32.8661 23.232 31.7941 23.904 30.3861H32.928C31.968 34.0341 30.064 36.9141 27.216 39.0261C24.368 41.1061 20.944 42.1461 16.944 42.1461C13.68 42.1461 10.752 41.4261 8.16 39.9861C5.6 38.5141 3.6 36.4821 2.16 33.8901C0.72 31.2981 0 28.3381 0 25.0101Z" fill="white"/>
<path d="M53.8905 42.2421C50.7225 42.2421 47.8105 41.5061 45.1545 40.0341C42.5305 38.5621 40.4345 36.5141 38.8665 33.8901C37.3305 31.2341 36.5625 28.2581 36.5625 24.9621C36.5625 21.6661 37.3305 18.7061 38.8665 16.0821C40.4345 13.4581 42.5305 11.4101 45.1545 9.93813C47.8105 8.46613 50.7225 7.73013 53.8905 7.73013C57.0585 7.73013 59.9545 8.46613 62.5785 9.93813C65.2345 11.4101 67.3145 13.4581 68.8185 16.0821C70.3545 18.7061 71.1225 21.6661 71.1225 24.9621C71.1225 28.2581 70.3545 31.2341 68.8185 33.8901C67.2825 36.5141 65.2025 38.5621 62.5785 40.0341C59.9545 41.5061 57.0585 42.2421 53.8905 42.2421ZM53.8905 34.7541C56.5785 34.7541 58.7225 33.8581 60.3225 32.0661C61.9545 30.2741 62.7705 27.9061 62.7705 24.9621C62.7705 21.9861 61.9545 19.6181 60.3225 17.8581C58.7225 16.0661 56.5785 15.1701 53.8905 15.1701C51.1705 15.1701 48.9945 16.0501 47.3625 17.8101C45.7625 19.5701 44.9625 21.9541 44.9625 24.9621C44.9625 27.9381 45.7625 30.3221 47.3625 32.1141C48.9945 33.8741 51.1705 34.7541 53.8905 34.7541Z" fill="white"/>
<path d="M87.8809 42.2421C85.4169 42.2421 83.2089 41.8421 81.2569 41.0421C79.3049 40.2421 77.7369 39.0581 76.5529 37.4901C75.4009 35.9221 74.7929 34.0341 74.7289 31.8261H83.4649C83.5929 33.0741 84.0249 34.0341 84.7609 34.7061C85.4969 35.3461 86.4569 35.6661 87.6409 35.6661C88.8569 35.6661 89.8169 35.3941 90.5209 34.8501C91.2249 34.2741 91.5769 33.4901 91.5769 32.4981C91.5769 31.6661 91.2889 30.9781 90.7129 30.4341C90.1689 29.8901 89.4809 29.4421 88.6489 29.0901C87.8489 28.7381 86.6969 28.3381 85.1929 27.8901C83.0169 27.2181 81.2409 26.5461 79.8649 25.8741C78.4889 25.2021 77.3049 24.2101 76.3129 22.8981C75.3209 21.5861 74.8249 19.8741 74.8249 17.7621C74.8249 14.6261 75.9609 12.1781 78.2329 10.4181C80.5049 8.62613 83.4649 7.73013 87.1129 7.73013C90.8249 7.73013 93.8169 8.62613 96.0889 10.4181C98.3609 12.1781 99.5769 14.6421 99.7369 17.8101H90.8569C90.7929 16.7221 90.3929 15.8741 89.6569 15.2661C88.9209 14.6261 87.9769 14.3061 86.8249 14.3061C85.8329 14.3061 85.0329 14.5781 84.4249 15.1221C83.8169 15.6341 83.5129 16.3861 83.5129 17.3781C83.5129 18.4661 84.0249 19.3141 85.0489 19.9221C86.0729 20.5301 87.6729 21.1861 89.8489 21.8901C92.0249 22.6261 93.7849 23.3301 95.1289 24.0021C96.5049 24.6741 97.6889 25.6501 98.6809 26.9301C99.6729 28.2101 100.169 29.8581 100.169 31.8741C100.169 33.7941 99.6729 35.5381 98.6809 37.1061C97.7209 38.6741 96.3129 39.9221 94.4569 40.8501C92.6009 41.7781 90.4089 42.2421 87.8809 42.2421Z" fill="white"/>
<path d="M129.46 8.21013V14.7861H120.532V41.9061H112.324V14.7861H103.396V8.21013H129.46Z" fill="white"/>
<path d="M141.643 8.21013V28.3701C141.643 30.3861 142.14 31.9381 143.132 33.0261C144.124 34.1141 145.579 34.6581 147.499 34.6581C149.419 34.6581 150.891 34.1141 151.915 33.0261C152.939 31.9381 153.452 30.3861 153.452 28.3701V8.21013H161.66V28.3221C161.66 31.3301 161.02 33.8741 159.74 35.9541C158.46 38.0341 156.731 39.6021 154.555 40.6581C152.411 41.7141 150.011 42.2421 147.355 42.2421C144.699 42.2421 142.316 41.7301 140.204 40.7061C138.124 39.6501 136.476 38.0821 135.26 36.0021C134.044 33.8901 133.436 31.3301 133.436 28.3221V8.21013H141.643Z" fill="white"/>
<path d="M184.607 41.9061L177.599 29.1861H175.631V41.9061H167.423V8.21013H181.199C183.855 8.21013 186.111 8.67413 187.967 9.60213C189.855 10.5301 191.263 11.8101 192.191 13.4421C193.119 15.0421 193.583 16.8341 193.583 18.8181C193.583 21.0581 192.943 23.0581 191.663 24.8181C190.415 26.5781 188.559 27.8261 186.095 28.5621L193.871 41.9061H184.607ZM175.631 23.3781H180.719C182.223 23.3781 183.343 23.0101 184.079 22.2741C184.847 21.5381 185.231 20.4981 185.231 19.1541C185.231 17.8741 184.847 16.8661 184.079 16.1301C183.343 15.3941 182.223 15.0261 180.719 15.0261H175.631V23.3781Z" fill="white"/>
<path d="M206.944 14.7861V21.6021H217.936V27.9381H206.944V35.3301H219.376V41.9061H198.736V8.21013H219.376V14.7861H206.944Z" fill="white"/>
<path d="M233.441 35.1861H247.936V41.9061H224.128V35.6661L238.529 14.9301H224.128V8.21013H247.936V14.4501L233.441 35.1861Z" fill="white"/>
<path d="M256.965 2.40672H271.427V41.9061H256.965V2.40672Z" fill="#CB0002"/>
<path d="M267.965 10.2261L278.191 0L306.122 27.9303L295.896 38.1564L267.965 10.2261Z" fill="#CB0002"/>
<path d="M260.995 33.4464H261.735V36.4764H264.085V34.0164H264.825V36.4764H267.965V37.3864H260.995V33.4464Z" fill="#F9E8E8"/>
<path d="M267.965 28.6774L265.115 30.3374V31.4374H267.965V32.3474H260.995V30.0974C260.995 29.5707 261.085 29.1274 261.265 28.7674C261.445 28.4007 261.689 28.1274 261.995 27.9474C262.302 27.7674 262.652 27.6774 263.045 27.6774C263.525 27.6774 263.949 27.8174 264.315 28.0974C264.682 28.3707 264.925 28.784 265.045 29.3374L267.965 27.5874V28.6774ZM264.385 31.4374V30.0974C264.385 29.604 264.265 29.234 264.025 28.9874C263.779 28.7407 263.452 28.6174 263.045 28.6174C262.632 28.6174 262.312 28.7407 262.085 28.9874C261.859 29.2274 261.745 29.5974 261.745 30.0974V31.4374H264.385Z" fill="#F9E8E8"/>
<path d="M268.035 23.1034C268.035 23.75 267.885 24.34 267.585 24.8734C267.279 25.4067 266.855 25.83 266.315 26.1434C265.769 26.45 265.155 26.6034 264.475 26.6034C263.795 26.6034 263.185 26.45 262.645 26.1434C262.099 25.83 261.675 25.4067 261.375 24.8734C261.069 24.34 260.915 23.75 260.915 23.1034C260.915 22.45 261.069 21.8567 261.375 21.3234C261.675 20.79 262.095 20.37 262.635 20.0634C263.175 19.7567 263.789 19.6034 264.475 19.6034C265.162 19.6034 265.775 19.7567 266.315 20.0634C266.855 20.37 267.279 20.79 267.585 21.3234C267.885 21.8567 268.035 22.45 268.035 23.1034ZM267.245 23.1034C267.245 22.6167 267.132 22.18 266.905 21.7934C266.679 21.4 266.355 21.0934 265.935 20.8734C265.515 20.6467 265.029 20.5334 264.475 20.5334C263.915 20.5334 263.429 20.6467 263.015 20.8734C262.595 21.0934 262.272 21.3967 262.045 21.7834C261.819 22.17 261.705 22.61 261.705 23.1034C261.705 23.5967 261.819 24.0367 262.045 24.4234C262.272 24.81 262.595 25.1167 263.015 25.3434C263.429 25.5634 263.915 25.6734 264.475 25.6734C265.029 25.6734 265.515 25.5634 265.935 25.3434C266.355 25.1167 266.679 24.81 266.905 24.4234C267.132 24.03 267.245 23.59 267.245 23.1034Z" fill="#F9E8E8"/>
<path d="M267.965 12.922V13.832L262.415 17.492H267.965V18.402H260.985V17.492L266.525 13.832H260.985V12.922H267.965Z" fill="#F9E8E8"/>
<path d="M260.995 7.08079H261.735V8.98079H267.965V9.89079H261.735V11.8008H260.995V7.08079Z" fill="#F9E8E8"/>
<path d="M281.517 11.045L279.87 12.6925L281.666 14.4886L281.135 15.0189L279.339 13.2228L277.642 14.9199L279.65 16.9281L279.12 17.4584L276.468 14.8068L281.404 9.87115L284.056 12.5228L283.525 13.0531L281.517 11.045Z" fill="#F9E8E8"/>
<path d="M283.969 22.307L283.325 21.6635L284.662 15.1511L280.737 19.0755L280.094 18.4321L285.029 13.4965L285.673 14.1399L284.343 20.6453L288.261 16.7279L288.904 17.3714L283.969 22.307Z" fill="#F9E8E8"/>
<path d="M291.528 20.0098C292.066 20.5472 292.429 21.1129 292.617 21.7069C292.815 22.3008 292.832 22.8877 292.667 23.4675C292.507 24.0521 292.174 24.5966 291.67 25.101C291.165 25.6054 290.621 25.9377 290.036 26.098C289.461 26.2583 288.877 26.2394 288.283 26.0414C287.698 25.8434 287.137 25.4757 286.6 24.9383L285.065 23.4039L289.994 18.4754L291.528 20.0098ZM287.13 24.408C287.767 25.0444 288.42 25.3626 289.089 25.3626C289.763 25.3579 290.404 25.0515 291.012 24.4434C291.625 23.8305 291.934 23.1823 291.939 22.4988C291.948 21.82 291.637 21.1647 291.005 20.5331L290.114 19.6421L286.239 23.517L287.13 24.408Z" fill="#F9E8E8"/>
</svg>
