<svg width="22" height="18" viewBox="0 0 22 18" fill="none" xmlns="http://www.w3.org/2000/svg">
<path d="M0 0.349619H6.83765V17.6567H0V0.349619Z" fill="#CB0002"/>
<path d="M4.0662 4.72662L8.90115 0L21.4196 12.238L16.5847 16.9646L4.0662 4.72662Z" fill="#CB0002"/>
<path d="M1.8044 13.9449H2.13573V15.2712H3.18793V14.1944H3.51926V15.2712H4.92517V15.6695H1.8044V13.9449Z" fill="white"/>
<path d="M4.92517 11.8575L3.6491 12.5841V13.0655H4.92517V13.4639H1.8044V12.479C1.8044 12.2485 1.8447 12.0544 1.92529 11.8969C2.00589 11.7364 2.11484 11.6167 2.25215 11.5379C2.38945 11.4591 2.54616 11.4198 2.72228 11.4198C2.93719 11.4198 3.12674 11.481 3.29091 11.6036C3.45508 11.7232 3.56403 11.9042 3.61776 12.1464L4.92517 11.3804V11.8575ZM3.32225 13.0655V12.479C3.32225 12.2631 3.26852 12.1011 3.16106 11.9932C3.05062 11.8852 2.90436 11.8312 2.72228 11.8312C2.53721 11.8312 2.39393 11.8852 2.29244 11.9932C2.19095 12.0982 2.14021 12.2602 2.14021 12.479V13.0655H3.32225Z" fill="white"/>
<path d="M4.95651 9.41767C4.95651 9.70072 4.88935 9.95897 4.75503 10.1924C4.61772 10.4259 4.42818 10.6112 4.1864 10.7483C3.94163 10.8825 3.66701 10.9497 3.36255 10.9497C3.05808 10.9497 2.78496 10.8825 2.54318 10.7483C2.29841 10.6112 2.10887 10.4259 1.97455 10.1924C1.83724 9.95897 1.76858 9.70072 1.76858 9.41767C1.76858 9.1317 1.83724 8.87199 1.97455 8.63855C2.10887 8.4051 2.29692 8.22126 2.5387 8.08703C2.78048 7.9528 3.0551 7.88568 3.36255 7.88568C3.67 7.88568 3.94461 7.9528 4.1864 8.08703C4.42818 8.22126 4.61772 8.4051 4.75503 8.63855C4.88935 8.87199 4.95651 9.1317 4.95651 9.41767ZM4.6028 9.41767C4.6028 9.20465 4.55205 9.01352 4.45056 8.84427C4.34908 8.6721 4.20431 8.53787 4.01625 8.44158C3.8282 8.34236 3.6103 8.29275 3.36255 8.29275C3.11181 8.29275 2.89391 8.34236 2.70884 8.44158C2.52079 8.53787 2.37602 8.67064 2.27453 8.83989C2.17304 9.00914 2.1223 9.20173 2.1223 9.41767C2.1223 9.63361 2.17304 9.8262 2.27453 9.99545C2.37602 10.1647 2.52079 10.2989 2.70884 10.3981C2.89391 10.4944 3.11181 10.5426 3.36255 10.5426C3.6103 10.5426 3.8282 10.4944 4.01625 10.3981C4.20431 10.2989 4.34908 10.1647 4.45056 9.99545C4.55205 9.82328 4.6028 9.63069 4.6028 9.41767Z" fill="white"/>
<path d="M4.92517 4.96119V5.35951L2.4402 6.96153H4.92517V7.35985H1.79993V6.96153L4.28042 5.35951H1.79993V4.96119H4.92517Z" fill="white"/>
<path d="M1.8044 2.40441H2.13573V3.23606H4.92517V3.63438H2.13573V4.47041H1.8044V2.40441Z" fill="white"/>
<path d="M10.6084 4.80933L9.8707 5.53049L10.6749 6.31664L10.4374 6.54877L9.63325 5.76262L8.8734 6.50544L9.77255 7.38444L9.5351 7.61657L8.34784 6.45592L10.5577 4.29555L11.745 5.4562L11.5075 5.68833L10.6084 4.80933Z" fill="white"/>
<path d="M11.706 9.73886L11.4179 9.45721L12.0163 6.60663L10.2592 8.32441L9.97105 8.04275L12.1809 5.88238L12.469 6.16404L11.8738 9.01151L13.6278 7.29684L13.9159 7.57849L11.706 9.73886Z" fill="white"/>
<path d="M15.0909 8.73334C15.3315 8.96857 15.494 9.21618 15.5785 9.47616C15.6671 9.73615 15.6745 9.99304 15.6006 10.2468C15.5289 10.5027 15.3801 10.741 15.1542 10.9618C14.9284 11.1826 14.6846 11.3281 14.4229 11.3982C14.1654 11.4684 13.9036 11.4601 13.6377 11.3735C13.376 11.2868 13.1248 11.1258 12.8842 10.8906L12.1972 10.219L14.4039 8.06171L15.0909 8.73334ZM13.1216 10.6585C13.4066 10.937 13.6989 11.0763 13.9986 11.0763C14.3004 11.0743 14.5875 10.9401 14.8598 10.674C15.1342 10.4057 15.2724 10.122 15.2745 9.82281C15.2787 9.52569 15.1394 9.23887 14.8566 8.96238L14.4577 8.5724L12.7227 10.2685L13.1216 10.6585Z" fill="white"/>
</svg>
